<?xml version="1.0" encoding="UTF-8" standalone="no"?>
<!DOCTYPE svg PUBLIC "-//W3C//DTD SVG 1.1//EN"
"http://www.w3.org/Graphics/SVG/1.1/DTD/svg11.dtd">


<!-- Page 1 -->
<svg x="0" y="0" width="1466" height="2109" version="1.1" xmlns="http://www.w3.org/2000/svg" xmlns:xlink="http://www.w3.org/1999/xlink"
style="display: block;margin-left: auto;margin-right: auto;">
<defs>

<style type="text/css"><![CDATA[

.g4_1{
fill: #ED1C24;
}
.g1_1{
fill: #C11C24;
}
.g6_1{
fill: #A51D24;
}
.g5_1{
fill: #801503;
}
.g2_1{
fill: none;
stroke: #A53D2F;
stroke-width: 1;
stroke-linecap: butt;
stroke-linejoin: miter;
}
.g8_1{
fill: #AE1D0A;
}
.g7_1{
fill: #BC4F44;
}
.g3_1{
fill: none;
stroke: #BC4F44;
stroke-width: 1;
stroke-linecap: butt;
stroke-linejoin: miter;
}


]]></style>

</defs>
<path d="M0,0
L0,2109
L1466,2109
L1466,0 Z " 
fill="#FFFFFF" stroke="none" />
<path d="M6,2105l1458,0L1464,0L6,0L6,2105Z" class="g1_1" />
<path d="M209.5,527.5l0,-1" class="g2_1" />
<path d="M401.5,312.5l0,-1" class="g3_1" />
<path d="M152.5,0l56.6,526.5l1.3,1.3l421.7,74L627,596.6L402.5,312.7l-0.7,0.1l-0.5,8.7l0.5,-8.7l-2.4,0.7l2.4,-0.7l0.1,-0.9L155.4,0Z" class="g4_1" />
<path d="M209.3,528L0,658.1l0,1.3L377,625.8L619.2,604.3l7.8,-7.6L210.4,527.8l-1.2,-0.2Z" class="g5_1" />
<path d="M0,659.4l0,2.7L272.2,945.7l1.1,-1L377,625.8Z" class="g4_1" />
<path d="M351.4,701.7l-78.1,243L632.1,601.8Z" class="g6_1" />
<path d="M151.6,0L106,420.4L209.1,526.5L152.5,0Z" class="g1_1" />
<path d="M106,420.5L0,654.2l0,3.9L209.3,528l-0.1,-0.4l-0.1,-1.1L106,420.4Z" class="g4_1" />
<path d="M0,658.1l0,1.3L377,625.8L606.8,605.4l25.3,-3.5L588.2,590.3L210.8,528.2L209.3,528Z" class="g6_1" />
<path d="M0,661l0,0.7l345,59.5l1.1,-0.5l31.4,-96.5Z" class="g1_1" />
<path d="M377.5,624.2l-31.4,96.5l286,-118.9Z" class="g1_1" />
<image x="345" y="256" width="113" height="113" xlink:href="1/img/1.png" />
<path d="M155.3,0L401.1,312.6l0.8,-0.6L419,17.5L203.6,0Z" class="g6_1" />
<path d="M419,17.5L401.9,312L732.7,42.9Z" class="g1_1" />
<image x="345" y="256" width="113" height="114" xlink:href="1/img/2.png" />
<path d="M643.7,334.2L401.8,313l0,0.5L632.1,601.8Z" class="g1_1" />
<image x="345" y="256" width="113" height="113" xlink:href="1/img/3.png" />
<image x="826" y="15" width="114" height="114" xlink:href="1/img/4.png" />
<path d="M881.1,72.1l-1.8,-0.3L402.9,312.3l402.1,38l-1.1,-3l1.1,3l359.2,38.9l1.2,-4.9Z" class="g4_1" />
<path d="M882.4,0l1.3,71.1l-0.3,0.1l0.8,0.9L895,74.3L884.2,72.1l284.2,312.2l2.2,-10.6L1057,158.6L973.2,0Z" class="g5_1" />
<path d="M968.7,0l83.7,158.6L1280.7,0Z" class="g6_1" />
<path d="M1280.7,0L1052.4,158.6l111.8,230.6L1333.8,0Z" class="g1_1" />
<path d="M732.7,42.9L401.9,311.8l0,0.2L877.8,71.8Z" class="g6_1" />
<image x="345" y="256" width="113" height="113" xlink:href="1/img/5.png" />
<path d="M760.2,0L732.8,42.8l-0.1,0.1L877.8,71.8l1,-0.6L868.3,59.7l10.5,11.5l0.3,-0.1L877.8,0Z" class="g4_1" />
<path d="M877.8,0l1.3,71.1l1.1,1.1l10.2,2.1L880.2,72.2l284,317l-4,-26.5L1052.4,158.6L968.7,0Z" class="g1_1" />
<path d="M968.6,0l82.7,160l69.3,-49.2L1027.1,0Z" class="g4_1" />
<path d="M1051.3,160l69.3,-49.2l43.6,278.4Z" class="g4_1" />
<path d="M643,335.9l-0.2,2.9L895.6,727.6L1091.5,518.8Z" class="g1_1" />
<path d="M899.6,729.8l24,37l-24,-37l10.6,393.1l471,-34.7L899.9,728Z" class="g4_1" />
<path d="M1093.5,517.3l-0.6,-0.3l-196,208.8l3.5,-0.3l-0.5,2.5l481.3,360.2l3.1,-1.3L1262.5,920.2L1089.6,868.4Z" class="g6_1" />
<path d="M624.9,753.1l272,-27.3L644.1,336.9Z" class="g4_1" />
<path d="M624.9,753.1L872.3,867.2L900.5,731.3L897,726Z" class="g6_1" />
<path d="M901.7,725.6l-4.6,0.4l3.9,2.8Z" class="g7_1" />
<path d="M897.1,726l-0.1,0l3.5,5.3l0.5,-2.4Z" class="g7_1" />
<path d="M910.2,1122.9L872.3,867.2L901,728.9Z" class="g1_1" />
<path d="M1093.5,517.3l167.4,402L1089.6,868.4Z" class="g4_1" />
<path d="M685.8,1376.2l-63.3,73L590.7,1046l248.8,-11.2Z" class="g4_1" />
<path d="M589.7,1042.6l-8.9,-31.3l8.9,31.3L376.5,846.1L632.1,601.8l-41.2,441.4Z" class="g4_1" />
<path d="M840.3,1033.5l-0.8,1.3L590.7,1046l1.8,-1.8l-1.6,-1L632.1,601.8l-7.2,151.3l-20,116.7Z" class="g6_1" />
<path d="M443.9,1187.9L590.7,1046l31.8,403.2Z" class="g1_1" />
<path d="M444.5,1187.1l55.7,-196l89.2,50.2l1.2,4.5Z" class="g6_1" />
<path d="M593.1,1043.5l-2.4,2.3l0.3,-3.6Z" class="g7_1" />
<path d="M590.7,1045.8l-0.1,0l-1.2,-4.5l1.6,0.9Z" class="g7_1" />
<path d="M368.1,840.6L500.2,991.1l90.8,51.1Z" class="g1_1" />
<path d="M842,1035L624.9,753.1l-20,116.7Z" class="g1_1" />
<path d="M1167.5,1435.5l0,-2" class="g2_1" />
<path d="M892.7,1470.7l2.7,1.3l-2.7,-1.3L876.2,1895l291.3,-459.9l-0.1,-1.8L905.9,1122.9l-0.1,0Z" class="g4_1" />
<path d="M905.9,1122.9l261.5,310.4l-0.7,-10.6l0.7,10.6l0.7,0.9l0.2,-0.4l236.9,36l0,-0.1L1106.8,1257.6l-8.9,5.5l8.9,-5.5L916.2,1122.2Z" class="g5_1" />
<path d="M1405.2,1469.7L1383,1089.2l-1.4,0.1l-274.8,168.3Z" class="g4_1" />
<path d="M1106.8,1257.6l277.5,-170.7l-468.1,35.3Z" class="g6_1" />
<path d="M878.3,1892.6L1176.6,1577l-9.1,-141.9Z" class="g6_1" />
<path d="M1177.8,1445.6l-9.7,-11.4l-0.6,0.9l9.1,141.9l0.1,-0.1l228.5,-107.1l-236.9,-36l-0.2,0.4Z" class="g1_1" />
<path d="M905.9,1123l24.3,28.8l237.1,280.9l-0.6,-10l0.6,10l1,1.1l236.9,36l0,-0.1L1106.8,1257.6l-8.9,5.5l8.9,-5.5L926,1129.2Z" class="g6_1" />
<path d="M1405.2,1469.8L1189.7,1207.9l-1.1,-0.4l-83.2,51Z" class="g1_1" />
<path d="M1105.4,1258.5l83.2,-51L907.9,1120.6Z" class="g1_1" />
<path d="M624.9,753.1L872.3,867.2l37.9,255.7Z" class="g4_1" />
<path d="M907.9,1120.6L622.5,1449.2l218,-416.8Z" class="g1_1" />
<path d="M604.5,1570.5l0,-2" class="g2_1" />
<path d="M891.4,1530.9l-2.9,-1.4l2.9,1.4l15.3,-407.6L605.6,1568.4l0.1,1.8l272.6,322.4l0.1,0Z" class="g1_1" />
<path d="M878.3,1892.6L605.7,1570.2l0.7,11l-0.7,-11l-0.8,-0.9l-0.2,0.3L358.2,1532.7L669,1752.8l9.3,-5.7l-9.3,5.7l198.5,140.6Z" class="g5_1" />
<path d="M344.4,1530.8l-47.4,450l1.4,-0.1L584,1805.1Z" class="g6_1" />
<path d="M584,1805.1l-289.7,177L778.4,1947Z" class="g1_1" />
<path d="M910.2,1117.9L622.5,1448.8l-16.9,119.6Z" class="g6_1" />
<path d="M594.9,1557.4l10,11.9l0.7,-0.9l16.9,-119.2l-278.1,81.6l260.3,38.8l0.2,-0.3Z" class="g4_1" />
<path d="M878.3,1892.6l-25.4,-30L605.7,1570.8l0.7,10.4l-0.7,-10.4l-1,-1.2L344.4,1530.8l324.6,222l9.3,-5.7l-9.3,5.7l188.3,133.4Z" class="g6_1" />
<path d="M344.4,1530.8l238.5,274l1.1,0.3l86.5,-53.2Z" class="g1_1" />
<path d="M670.5,1751.9L584,1805.1L876.2,1895Z" class="g1_1" />
<path d="M101.5,1346.5l0,-1" class="g2_1" />
<path d="M0,1401l119.1,138.5l10.4,-3.3l-10.4,3.3l158.6,184.4l10.6,1.9L101.8,1347l-1.9,10.8l1.9,-10.8l-0.5,-1.1l-0.3,0.3L0,1304.3Z" class="g5_1" />
<path d="M0,1577.2l119.1,-37.7L0,1401Z" class="g8_1" />
<path d="M500.4,989.8l-372,209.8l-26.3,145.5Z" class="g1_1" />
<path d="M128.3,1199.6L0,1225l0,79.3l101,41.9l0.3,-0.3l0.8,-0.8l26.3,-145.5Z" class="g4_1" />
<path d="M0,1401l119.1,138.5l201.6,222.7l-219,-414.6l-1.8,10.2l1.8,-10.2l-0.7,-1.4L0,1304.3Z" class="g1_1" />
<path d="M0,1521.6L22.9,1569l1,0.6l96.8,-30.7L0,1400.9Z" class="g6_1" />
<path d="M120.7,1538.9l-96.8,30.7l296.8,192.6Z" class="g6_1" />
<path d="M443.9,1187.9l178.6,261.3l-260.2,83.2Z" class="g6_1" />
<path d="M273.3,944.7l227.1,45.1L373.3,845.8Z" class="g1_1" />
<path d="M0,1018.5l0,88.7l128.4,92.4L500.2,991.1Z" class="g4_1" />
<path d="M0,1018.6L485.8,992.5l14.4,-1.4L272,944.3l-149.9,64.6L0,861.8Z" class="g6_1" />
<path d="M0,786.3L0,918.1L88,894.4L21.5,772.5l-6.1,-1.8Z" class="g6_1" />
<path d="M18.7,767.4l-3.2,3.3l4.8,-0.3Z" class="g7_1" />
<path d="M15.5,770.7l-0.1,0l6.1,1.8l-1.2,-2.1Z" class="g7_1" />
<path d="M0,1161.7l128.4,37.9L0,1106.1Z" class="g1_1" />
<path d="M0,864.4l122.1,144.5L272,944.3L0,798.6Z" class="g1_1" />
<path d="M0,797.1L272,944.3L0,663.7Z" class="g6_1" />
<path d="M639.9,335.5l822.8,81.3L1317.3,609.9Z" class="g6_1" />
<path d="M1341.5,691.5l0,-1" class="g2_1" />
<path d="M1181.2,728.3l1.2,-1.3l-1.2,1.3l-89,-213.1l249.5,175.7l0.3,1l-81.1,227.5Z" class="g1_1" />
<path d="M1342.4,691.4l-0.1,-0.1l-0.3,0.6l1.9,6.1l-1.9,-6.1l-81.1,227.5l6,-1.8l78,-115.2l-6.2,-1.2l6.2,1.2L1464.2,626.1l0,-2.5Z" class="g5_1" />
<path d="M1344.9,802.4l119.3,23.2l0,-199.5Z" class="g4_1" />
<path d="M1266.9,917.6l197.3,-58.3l0,-33.7L1344.9,802.4Z" class="g6_1" />
<path d="M1092.2,515.2l225.1,94.7l24.4,81Z" class="g4_1" />
<path d="M1341.7,690.9l0.6,0.4l0.1,0.1l121.8,-67.8l0,-1.8L1317.3,610l0,-0.1Z" class="g6_1" />
<path d="M1342.4,691.4l-0.3,0.9l1.8,5.7l-1.8,-5.7l-73.6,205.9l-7.6,21.1l10,-7.6l74,-109.3l-6.2,-1.2l6.2,1.2L1464.2,626.1l0,-2.5Z" class="g6_1" />
<path d="M1343.9,802.2l57,11.1l0.5,-0.4l62.8,-180.1l0,-5.1Z" class="g1_1" />
<path d="M1343.9,802.2l57,11.1L1262.5,920.2Z" class="g1_1" />
<path d="M1333.6,0L1162,390.6l2.9,0.3L1464.2,207.4l0,-154L1410.3,0Z" class="g6_1" />
<path d="M1410.3,0l53.9,53.4l0,-53.4Z" class="g1_1" />
<path d="M1164.9,390.9l299.3,24.7l0,-208.2Z" class="g4_1" />
<path d="M203.6,0L419,17.5L420,0Z" class="g4_1" />
<path d="M420,0l-1,17.5L732.7,42.9L759.4,0Z" class="g6_1" />
<path d="M0,0L0,189L106,420.4L151.6,0Z" class="g6_1" />
<path d="M0,655.9L106,420.4L0,189Z" class="g1_1" />
<path d="M1317.3,610l146.9,12.2l0,-143.8l-1.5,-61.6Z" class="g4_1" />
<path d="M1260.9,919.3l203.3,277.9l-0.1,-339.6Z" class="g4_1" />
<path d="M0,1225.4l128.4,-25.8L0,1161.7Z" class="g6_1" />
<path d="M1404.8,1467.8l59.4,-257.6l0,-27.2l-81.4,-95.4Z" class="g6_1" />
<image x="-57" y="-56" width="1587" height="2234" xlink:href="1/img/6.png" />
<image x="-57" y="-56" width="1578" height="2218" xlink:href="1/img/7.png" />
<path d="M0,1687.5l320.7,74.7L0,1528.2Z" class="g1_1" />
<path d="M778.4,1947l97.8,-52L583.5,1804.9Z" class="g4_1" />
<path d="M0,1687.5l294.3,294.6l26.4,-219.9L0,1686.7Z" class="g4_1" />
<path d="M398.7,1378.3L500.4,989.8L102.1,1345.1l-0.3,1.9l186.5,378.8l32.1,28.4Z" class="g4_1" />
<path d="M1350.6,1707.4l113.6,-143.1l0,-367Z" class="g1_1" />
<path d="M1404.8,1467.8l-228.1,109.1l173.9,130.5Z" class="g4_1" />
<path d="M1178.6,1929.5l148,118l137.6,-482.4l0,-0.8Z" class="g4_1" />
<path d="M1176.7,1576.9l173.9,130.5l-96,124Z" class="g6_1" />
<path d="M1178.6,1929.5l76,-98.1l-77.9,-254.5Z" class="g1_1" />
<path d="M876.2,1895l302.4,34.5l-1.9,-352.6Z" class="g4_1" />
<path d="M0,1689.7L94.1,1987l200.2,-4.9L0,1687.5Z" class="g1_1" />
<path d="M1326.6,2047.5l137.6,-109.3l0,-373.1Z" class="g6_1" />
<path d="M0,2105.6l134.7,-0.9L0,1689.6Z" class="g6_1" />
<path d="M94.1,1987l40.6,117.7L778.4,1947Z" class="g4_1" />
<path d="M1250,2105l214,0l0,-167Z" class="g1_1" />
<path d="M876.2,1895l302.4,34.5L778.4,1947Z" class="g6_1" />
<path d="M1248.3,2105.6l2.2,0l76.1,-58.1l-148,-118Z" class="g6_1" />
<path d="M134.7,2104.7l201,0.9l229.1,0L778.4,1947Z" class="g6_1" />
<path d="M778.4,1947L1245,2105.6l3.3,0l-69.7,-176.1Z" class="g4_1" />
<path d="M564.8,2105.6l680.2,0L778.4,1947Z" class="g1_1" />

<title>WebsiteBackgroundNew Page1</title>
</svg>
